<?xml version="1.0" encoding="UTF-8" standalone="no"?>
<svg width="200" height="200" viewBox="0 0 200 200" xmlns="http://www.w3.org/2000/svg">
  <rect width="200" height="200" fill="transparent" />
  <g transform="translate(40, 40)">
    <rect x="0" y="0" width="120" height="120" rx="5" ry="5" fill="#f0f0f0" stroke="#d0d0d0" stroke-width="2" />
    <rect x="10" y="10" width="20" height="20" fill="#a0a0a0" />
    <rect x="30" y="10" width="20" height="20" fill="#e0e0e0" />
    <rect x="50" y="10" width="20" height="20" fill="#a0a0a0" />
    <rect x="70" y="10" width="20" height="20" fill="#e0e0e0" />
    <rect x="90" y="10" width="20" height="20" fill="#a0a0a0" />
    <rect x="10" y="30" width="20" height="20" fill="#e0e0e0" />
    <rect x="30" y="30" width="20" height="20" fill="#a0a0a0" />
    <rect x="50" y="30" width="20" height="20" fill="#e0e0e0" />
    <rect x="70" y="30" width="20" height="20" fill="#a0a0a0" />
    <rect x="90" y="30" width="20" height="20" fill="#e0e0e0" />
    <rect x="10" y="50" width="20" height="20" fill="#a0a0a0" />
    <rect x="30" y="50" width="20" height="20" fill="#e0e0e0" />
    <rect x="50" y="50" width="20" height="20" fill="#a0a0a0" />
    <rect x="70" y="50" width="20" height="20" fill="#e0e0e0" />
    <rect x="90" y="50" width="20" height="20" fill="#a0a0a0" />
    <rect x="10" y="70" width="20" height="20" fill="#e0e0e0" />
    <rect x="30" y="70" width="20" height="20" fill="#a0a0a0" />
    <rect x="50" y="70" width="20" height="20" fill="#e0e0e0" />
    <rect x="70" y="70" width="20" height="20" fill="#a0a0a0" />
    <rect x="90" y="70" width="20" height="20" fill="#e0e0e0" />
    <rect x="10" y="90" width="20" height="20" fill="#a0a0a0" />
    <rect x="30" y="90" width="20" height="20" fill="#e0e0e0" />
    <rect x="50" y="90" width="20" height="20" fill="#a0a0a0" />
    <rect x="70" y="90" width="20" height="20" fill="#e0e0e0" />
    <rect x="90" y="90" width="20" height="20" fill="#a0a0a0" />
  </g>
</svg>
