<?xml version="1.0" encoding="UTF-8" standalone="no"?>
<svg width="200" height="200" viewBox="0 0 200 200" xmlns="http://www.w3.org/2000/svg">
  <rect width="200" height="200" fill="transparent" />
  <g transform="translate(40, 40)">
    <rect x="0" y="0" width="120" height="120" fill="#f0f0f0" />
    <rect x="0" y="0" width="30" height="30" fill="#d0d0d0" />
    <rect x="30" y="0" width="30" height="30" fill="#f0f0f0" />
    <rect x="60" y="0" width="30" height="30" fill="#d0d0d0" />
    <rect x="90" y="0" width="30" height="30" fill="#f0f0f0" />
    <rect x="0" y="30" width="30" height="30" fill="#f0f0f0" />
    <rect x="30" y="30" width="30" height="30" fill="#d0d0d0" />
    <rect x="60" y="30" width="30" height="30" fill="#f0f0f0" />
    <rect x="90" y="30" width="30" height="30" fill="#d0d0d0" />
    <rect x="0" y="60" width="30" height="30" fill="#d0d0d0" />
    <rect x="30" y="60" width="30" height="30" fill="#f0f0f0" />
    <rect x="60" y="60" width="30" height="30" fill="#d0d0d0" />
    <rect x="90" y="60" width="30" height="30" fill="#f0f0f0" />
    <rect x="0" y="90" width="30" height="30" fill="#f0f0f0" />
    <rect x="30" y="90" width="30" height="30" fill="#d0d0d0" />
    <rect x="60" y="90" width="30" height="30" fill="#f0f0f0" />
    <rect x="90" y="90" width="30" height="30" fill="#d0d0d0" />
    <circle cx="45" cy="45" r="15" fill="#a0a0a0" stroke="#808080" stroke-width="2" />
    <circle cx="75" cy="75" r="15" fill="#a0a0a0" stroke="#808080" stroke-width="2" opacity="0.5" />
    <circle cx="105" cy="45" r="15" fill="#a0a0a0" stroke="#808080" stroke-width="2" opacity="0.5" />
  </g>
</svg>
